<mxfile host="Electron" modified="2025-05-26T13:15:26.601Z" agent="Mozilla/5.0 (Windows NT 10.0; Win64; x64) AppleWebKit/537.36 (KHTML, like Gecko) draw.io/24.6.1 Chrome/124.0.6367.207 Electron/30.0.6 Safari/537.36" etag="aEGZ4sQM4Jt7ouroVt4G" version="24.6.1" type="device">
  <diagram name="Página-1" id="IHkEjUxwQa4Yhs-6mhbP">
    <mxGraphModel dx="712" dy="828" grid="1" gridSize="10" guides="1" tooltips="1" connect="1" arrows="1" fold="1" page="1" pageScale="1" pageWidth="827" pageHeight="1169" math="0" shadow="0">
      <root>
        <mxCell id="0" />
        <mxCell id="1" parent="0" />
        <mxCell id="iN_rouxvmDji-oPHev6C-1" value="Paciente" style="shape=umlActor;verticalLabelPosition=bottom;verticalAlign=top;html=1;outlineConnect=0;" vertex="1" parent="1">
          <mxGeometry x="240" y="220" width="30" height="60" as="geometry" />
        </mxCell>
        <mxCell id="iN_rouxvmDji-oPHev6C-3" value="Solicitar citas" style="ellipse;whiteSpace=wrap;html=1;" vertex="1" parent="1">
          <mxGeometry x="330" y="170" width="120" height="60" as="geometry" />
        </mxCell>
        <mxCell id="iN_rouxvmDji-oPHev6C-4" value="Ver historial médico" style="ellipse;whiteSpace=wrap;html=1;" vertex="1" parent="1">
          <mxGeometry x="330" y="230" width="120" height="60" as="geometry" />
        </mxCell>
        <mxCell id="iN_rouxvmDji-oPHev6C-5" value="Comunicarse con los veterinarios" style="ellipse;whiteSpace=wrap;html=1;" vertex="1" parent="1">
          <mxGeometry x="330" y="290" width="120" height="60" as="geometry" />
        </mxCell>
        <mxCell id="iN_rouxvmDji-oPHev6C-7" value="" style="endArrow=none;html=1;rounded=0;entryX=-0.008;entryY=0.383;entryDx=0;entryDy=0;entryPerimeter=0;" edge="1" parent="1" source="iN_rouxvmDji-oPHev6C-1" target="iN_rouxvmDji-oPHev6C-5">
          <mxGeometry width="50" height="50" relative="1" as="geometry">
            <mxPoint x="250" y="300" as="sourcePoint" />
            <mxPoint x="300" y="250" as="targetPoint" />
          </mxGeometry>
        </mxCell>
        <mxCell id="iN_rouxvmDji-oPHev6C-8" value="" style="endArrow=none;html=1;rounded=0;entryX=-0.018;entryY=0.497;entryDx=0;entryDy=0;entryPerimeter=0;" edge="1" parent="1" source="iN_rouxvmDji-oPHev6C-1" target="iN_rouxvmDji-oPHev6C-4">
          <mxGeometry width="50" height="50" relative="1" as="geometry">
            <mxPoint x="271" y="240" as="sourcePoint" />
            <mxPoint x="330" y="290" as="targetPoint" />
          </mxGeometry>
        </mxCell>
        <mxCell id="iN_rouxvmDji-oPHev6C-9" value="" style="endArrow=none;html=1;rounded=0;entryX=0.008;entryY=0.683;entryDx=0;entryDy=0;entryPerimeter=0;" edge="1" parent="1" source="iN_rouxvmDji-oPHev6C-1" target="iN_rouxvmDji-oPHev6C-3">
          <mxGeometry width="50" height="50" relative="1" as="geometry">
            <mxPoint x="270" y="190" as="sourcePoint" />
            <mxPoint x="329" y="240" as="targetPoint" />
          </mxGeometry>
        </mxCell>
        <mxCell id="iN_rouxvmDji-oPHev6C-10" value="Veterinarios" style="shape=umlActor;verticalLabelPosition=bottom;verticalAlign=top;html=1;outlineConnect=0;" vertex="1" parent="1">
          <mxGeometry x="240" y="380" width="30" height="60" as="geometry" />
        </mxCell>
        <mxCell id="iN_rouxvmDji-oPHev6C-11" value="Gestionar citas" style="ellipse;whiteSpace=wrap;html=1;" vertex="1" parent="1">
          <mxGeometry x="330" y="360" width="120" height="60" as="geometry" />
        </mxCell>
        <mxCell id="iN_rouxvmDji-oPHev6C-12" value="Acceder historial y escribir recetas" style="ellipse;whiteSpace=wrap;html=1;" vertex="1" parent="1">
          <mxGeometry x="330" y="420" width="120" height="60" as="geometry" />
        </mxCell>
        <mxCell id="iN_rouxvmDji-oPHev6C-15" value="" style="endArrow=none;html=1;rounded=0;entryX=-0.018;entryY=0.497;entryDx=0;entryDy=0;entryPerimeter=0;" edge="1" parent="1" source="iN_rouxvmDji-oPHev6C-10" target="iN_rouxvmDji-oPHev6C-12">
          <mxGeometry width="50" height="50" relative="1" as="geometry">
            <mxPoint x="271" y="430" as="sourcePoint" />
            <mxPoint x="330" y="480" as="targetPoint" />
          </mxGeometry>
        </mxCell>
        <mxCell id="iN_rouxvmDji-oPHev6C-16" value="" style="endArrow=none;html=1;rounded=0;entryX=0;entryY=0.5;entryDx=0;entryDy=0;" edge="1" parent="1" source="iN_rouxvmDji-oPHev6C-10" target="iN_rouxvmDji-oPHev6C-11">
          <mxGeometry width="50" height="50" relative="1" as="geometry">
            <mxPoint x="270" y="380" as="sourcePoint" />
            <mxPoint x="329" y="430" as="targetPoint" />
          </mxGeometry>
        </mxCell>
        <mxCell id="iN_rouxvmDji-oPHev6C-17" value="Administradores" style="shape=umlActor;verticalLabelPosition=bottom;verticalAlign=top;html=1;outlineConnect=0;" vertex="1" parent="1">
          <mxGeometry x="240" y="540" width="30" height="60" as="geometry" />
        </mxCell>
        <mxCell id="iN_rouxvmDji-oPHev6C-18" value="Gestionar personal" style="ellipse;whiteSpace=wrap;html=1;" vertex="1" parent="1">
          <mxGeometry x="330" y="490" width="120" height="60" as="geometry" />
        </mxCell>
        <mxCell id="iN_rouxvmDji-oPHev6C-19" value="Verificar informes" style="ellipse;whiteSpace=wrap;html=1;" vertex="1" parent="1">
          <mxGeometry x="330" y="550" width="120" height="60" as="geometry" />
        </mxCell>
        <mxCell id="iN_rouxvmDji-oPHev6C-20" value="Manejar facturas" style="ellipse;whiteSpace=wrap;html=1;" vertex="1" parent="1">
          <mxGeometry x="330" y="610" width="120" height="60" as="geometry" />
        </mxCell>
        <mxCell id="iN_rouxvmDji-oPHev6C-21" value="" style="endArrow=none;html=1;rounded=0;entryX=-0.008;entryY=0.383;entryDx=0;entryDy=0;entryPerimeter=0;" edge="1" parent="1" source="iN_rouxvmDji-oPHev6C-17" target="iN_rouxvmDji-oPHev6C-20">
          <mxGeometry width="50" height="50" relative="1" as="geometry">
            <mxPoint x="250" y="620" as="sourcePoint" />
            <mxPoint x="300" y="570" as="targetPoint" />
          </mxGeometry>
        </mxCell>
        <mxCell id="iN_rouxvmDji-oPHev6C-22" value="" style="endArrow=none;html=1;rounded=0;entryX=-0.018;entryY=0.497;entryDx=0;entryDy=0;entryPerimeter=0;" edge="1" parent="1" source="iN_rouxvmDji-oPHev6C-17" target="iN_rouxvmDji-oPHev6C-19">
          <mxGeometry width="50" height="50" relative="1" as="geometry">
            <mxPoint x="271" y="560" as="sourcePoint" />
            <mxPoint x="330" y="610" as="targetPoint" />
          </mxGeometry>
        </mxCell>
        <mxCell id="iN_rouxvmDji-oPHev6C-23" value="" style="endArrow=none;html=1;rounded=0;entryX=0.008;entryY=0.683;entryDx=0;entryDy=0;entryPerimeter=0;" edge="1" parent="1" source="iN_rouxvmDji-oPHev6C-17" target="iN_rouxvmDji-oPHev6C-18">
          <mxGeometry width="50" height="50" relative="1" as="geometry">
            <mxPoint x="270" y="510" as="sourcePoint" />
            <mxPoint x="329" y="560" as="targetPoint" />
          </mxGeometry>
        </mxCell>
      </root>
    </mxGraphModel>
  </diagram>
</mxfile>
